<mxfile host="app.diagrams.net" modified="2023-04-03T14:37:28.587Z" agent="Mozilla/5.0 (Windows NT 10.0; Win64; x64) AppleWebKit/537.36 (KHTML, like Gecko) Chrome/111.0.0.0 Safari/537.36 Edg/111.0.1661.62" etag="qzq-lxqFhuLq_XUCYpOq" version="21.1.1" type="device">
  <diagram name="Page-1" id="JpWA1LD915QZY0SQodCZ">
    <mxGraphModel dx="735" dy="1106" grid="1" gridSize="10" guides="1" tooltips="1" connect="1" arrows="1" fold="1" page="1" pageScale="1" pageWidth="850" pageHeight="1100" math="0" shadow="0">
      <root>
        <mxCell id="0" />
        <mxCell id="1" parent="0" />
        <mxCell id="5yN_iWSkc1ULdn8W64YA-1" value="Task 0" style="rounded=0;whiteSpace=wrap;html=1;" parent="1" vertex="1">
          <mxGeometry x="120" y="490" width="80" height="60" as="geometry" />
        </mxCell>
        <mxCell id="5yN_iWSkc1ULdn8W64YA-2" value="Task 3" style="rounded=0;whiteSpace=wrap;html=1;" parent="1" vertex="1">
          <mxGeometry x="480" y="490" width="80" height="60" as="geometry" />
        </mxCell>
        <mxCell id="5yN_iWSkc1ULdn8W64YA-3" value="Task 2" style="rounded=0;whiteSpace=wrap;html=1;" parent="1" vertex="1">
          <mxGeometry x="360" y="490" width="80" height="60" as="geometry" />
        </mxCell>
        <mxCell id="5yN_iWSkc1ULdn8W64YA-4" value="Task 1" style="rounded=0;whiteSpace=wrap;html=1;" parent="1" vertex="1">
          <mxGeometry x="240" y="490" width="80" height="60" as="geometry" />
        </mxCell>
        <mxCell id="j2Yp9i5HKKDBV_lYzRGC-2" value="" style="endArrow=none;html=1;rounded=0;entryX=0;entryY=0.5;entryDx=0;entryDy=0;exitX=1;exitY=0.5;exitDx=0;exitDy=0;" edge="1" parent="1" source="5yN_iWSkc1ULdn8W64YA-1" target="5yN_iWSkc1ULdn8W64YA-4">
          <mxGeometry width="50" height="50" relative="1" as="geometry">
            <mxPoint x="260" y="669" as="sourcePoint" />
            <mxPoint x="288" y="502" as="targetPoint" />
          </mxGeometry>
        </mxCell>
        <mxCell id="j2Yp9i5HKKDBV_lYzRGC-3" value="" style="endArrow=none;html=1;rounded=0;entryX=0;entryY=0.5;entryDx=0;entryDy=0;exitX=1;exitY=0.5;exitDx=0;exitDy=0;" edge="1" parent="1" source="5yN_iWSkc1ULdn8W64YA-4" target="5yN_iWSkc1ULdn8W64YA-3">
          <mxGeometry width="50" height="50" relative="1" as="geometry">
            <mxPoint x="410" y="669" as="sourcePoint" />
            <mxPoint x="460" y="619" as="targetPoint" />
          </mxGeometry>
        </mxCell>
        <mxCell id="j2Yp9i5HKKDBV_lYzRGC-4" value="" style="endArrow=none;html=1;rounded=0;entryX=0;entryY=0.5;entryDx=0;entryDy=0;exitX=1;exitY=0.5;exitDx=0;exitDy=0;" edge="1" parent="1" source="5yN_iWSkc1ULdn8W64YA-3" target="5yN_iWSkc1ULdn8W64YA-2">
          <mxGeometry width="50" height="50" relative="1" as="geometry">
            <mxPoint x="650" y="669" as="sourcePoint" />
            <mxPoint x="700" y="619" as="targetPoint" />
          </mxGeometry>
        </mxCell>
        <mxCell id="j2Yp9i5HKKDBV_lYzRGC-5" value="" style="endArrow=none;html=1;rounded=0;exitX=0;exitY=0.5;exitDx=0;exitDy=0;entryX=1;entryY=0.5;entryDx=0;entryDy=0;" edge="1" parent="1" source="5yN_iWSkc1ULdn8W64YA-1" target="5yN_iWSkc1ULdn8W64YA-2">
          <mxGeometry width="50" height="50" relative="1" as="geometry">
            <mxPoint x="160" y="730" as="sourcePoint" />
            <mxPoint x="640" y="600" as="targetPoint" />
            <Array as="points">
              <mxPoint x="80" y="520" />
              <mxPoint x="80" y="440" />
              <mxPoint x="330" y="440" />
              <mxPoint x="600" y="440" />
              <mxPoint x="600" y="520" />
            </Array>
          </mxGeometry>
        </mxCell>
      </root>
    </mxGraphModel>
  </diagram>
</mxfile>
